<svg width="6" height="9" viewBox="0 0 6 9" fill="none" xmlns="http://www.w3.org/2000/svg">
<path d="M4.46313 4.33C5.06313 4.07 5.41313 3.51 5.41313 2.84C5.41313 1.67 4.36313 0.88 3.00313 0.88C1.63313 0.88 0.583125 1.67 0.583125 2.84C0.583125 3.51 0.933125 4.07 1.53313 4.33C0.773125 4.6 0.363125 5.26 0.363125 6.06C0.363125 7.34 1.50313 8.12 3.00313 8.12C4.49313 8.12 5.63313 7.34 5.63313 6.06C5.63313 5.26 5.22313 4.6 4.46313 4.33ZM3.00313 1.95C3.81313 1.95 4.28313 2.35 4.28313 2.98C4.28313 3.51 3.93313 3.9 3.00313 3.9C2.06313 3.9 1.71313 3.51 1.71313 2.98C1.71313 2.35 2.18313 1.95 3.00313 1.95ZM3.00313 7.05C2.08313 7.05 1.49313 6.67 1.49313 5.96C1.49313 5.23 2.02313 4.88 3.00313 4.88C3.97313 4.88 4.50313 5.22 4.50313 5.96C4.50313 6.67 3.91313 7.05 3.00313 7.05Z" fill="#2D3132"/>
</svg>
