<svg width="6" height="9" viewBox="0 0 6 9" fill="none" xmlns="http://www.w3.org/2000/svg">
<path d="M4.52359 4.32C5.10359 4.07 5.43359 3.52 5.43359 2.88C5.43359 1.71 4.40359 0.88 3.00359 0.88C1.69359 0.88 0.633594 1.55 0.433594 3H1.57359C1.76359 2.22 2.26359 1.95 2.97359 1.95C3.81359 1.95 4.29359 2.39 4.29359 3.02C4.29359 3.63 3.83359 3.91 2.98359 3.91H2.23359V4.91H3.18359C4.16359 4.91 4.51359 5.32 4.51359 5.91C4.51359 6.6 4.01359 7.05 3.08359 7.05C2.27359 7.05 1.65359 6.73 1.48359 5.91H0.343594C0.503594 7.4 1.68359 8.12 3.09359 8.12C4.61359 8.12 5.65359 7.33 5.65359 6.01C5.65359 5.19 5.23359 4.58 4.52359 4.32Z" fill="#2D3132"/>
</svg>
